<svg width="561" height="533" viewBox="0 0 561 533" fill="none" xmlns="http://www.w3.org/2000/svg">
<path d="M452.73 532.331H347.84C338.215 532.331 330.34 524.456 330.34 514.831V400.101H229.72V514.831C229.72 524.456 221.845 532.331 212.22 532.331H107.33C97.7049 532.331 89.8299 524.456 89.8299 514.831V299.691H17.5329C10.4235 299.691 4.07994 295.425 1.34494 288.972C-1.38946 282.409 0.141836 274.972 5.06374 269.941L267.564 5.1406C270.845 1.8594 275.329 0 280.033 0C284.736 0 289.22 1.8594 292.502 5.1406L555.002 269.941C559.924 274.972 561.455 282.519 558.721 288.972C555.986 295.534 549.642 299.691 542.533 299.691H470.236V514.831C470.236 524.456 462.361 532.331 452.736 532.331H452.73Z" fill="white"/>
</svg>
